<svg xmlns="http://www.w3.org/2000/svg" xml:space="preserve" id="Layer_1" fill="#000" version="1.1" viewBox="0 0 301.59 301.59">
  <path d="M132.736 134.651c2.045-8.067 9.365-14.054 18.059-14.054h60.331c15.318 0 27.779-12.462 27.779-27.779 0-15.318-12.462-27.779-27.779-27.779H85.823c-10.272 0-18.629-8.357-18.629-18.629 0-10.272 8.357-18.629 18.629-18.629h46.408c15.317 0 27.779-12.462 27.779-27.779h-9.15c0 10.272-8.357 18.629-18.629 18.629H85.823c-15.318 0-27.779 12.462-27.779 27.779 0 15.318 12.462 27.779 27.779 27.779h125.302c10.272 0 18.629 8.357 18.629 18.629s-8.357 18.629-18.629 18.629h-60.331c-13.759 0-25.207 10.056-27.396 23.204H2.353V301.59h296.883V134.651h-166.5zM11.503 292.44V143.801h278.583V292.44H11.503z"/>
  <path d="M252.959 236.618h27.714V181.06h-41.636v32.354h13.922v23.204zm-4.772-32.355V190.21h23.335v37.258h-9.414v-23.204h-13.921z"/>
  <path d="M104.387 273.877h92.816v9.15h-92.816z"/>
  <path d="M20.852 273.877h18.564v9.15H20.852z"/>
  <path d="M48.696 273.877H67.26v9.15H48.696z"/>
  <path d="M206.485 273.877h18.564v9.15h-18.564z"/>
  <path d="M234.33 273.877h18.564v9.15H234.33z"/>
  <path d="M262.176 273.877h18.564v9.15h-18.564z"/>
  <path d="M76.542 273.877h18.564v9.15H76.542z"/>
  <path d="M20.852 250.672h37.126v9.15H20.852z"/>
  <path d="M243.612 250.672h37.126v9.15h-37.126z"/>
  <path d="M71.901 250.672h18.564v9.15H71.901z"/>
  <path d="M99.746 250.672h18.564v9.15H99.746z"/>
  <path d="M127.591 250.672h18.564v9.15h-18.564z"/>
  <path d="M155.436 250.672H174v9.15h-18.564z"/>
  <path d="M183.281 250.672h18.564v9.15h-18.564z"/>
  <path d="M211.126 250.672h18.564v9.15h-18.564z"/>
  <path d="M57.978 227.468h18.563v9.15H57.978z"/>
  <path d="M85.823 227.468h18.563v9.15H85.823z"/>
  <path d="M113.669 227.468h18.563v9.15h-18.563z"/>
  <path d="M141.513 227.468h18.564v9.15h-18.564z"/>
  <path d="M169.359 227.468h18.563v9.15h-18.563z"/>
  <path d="M197.203 227.468h18.564v9.15h-18.564z"/>
  <path d="M225.049 227.468h18.564v9.15h-18.564z"/>
  <path d="M67.26 204.263h18.564v9.15H67.26z"/>
  <path d="M95.105 204.263h18.564v9.15H95.105z"/>
  <path d="M122.95 204.263h18.564v9.15H122.95z"/>
  <path d="M150.795 204.263h18.564v9.15h-18.564z"/>
  <path d="M178.64 204.263h18.564v9.15H178.64z"/>
  <path d="M206.485 204.263h18.564v9.15h-18.564z"/>
  <path d="M67.26 181.06h18.564v9.15H67.26z"/>
  <path d="M95.105 181.06h18.564v9.15H95.105z"/>
  <path d="M122.95 181.06h18.564v9.15H122.95z"/>
  <path d="M150.795 181.06h18.564v9.15h-18.564z"/>
  <path d="M178.64 181.06h18.564v9.15H178.64z"/>
  <path d="M206.485 181.06h18.564v9.15h-18.564z"/>
  <path d="M20.852 227.468h27.845v9.15H20.852z"/>
  <path d="M20.852 204.263h37.126v9.15H20.852z"/>
  <path d="M20.852 181.06h37.126v9.15H20.852z"/>
  <path d="M20.852 153.214h9.282v9.15h-9.282z"/>
  <path d="M48.696 153.214h9.282v9.15h-9.282z"/>
  <path d="M76.542 153.214h9.282v9.15h-9.282z"/>
  <path d="M104.387 153.214h9.282v9.15h-9.282z"/>
  <path d="M132.232 153.214h9.282v9.15h-9.282z"/>
  <path d="M160.077 153.214h9.282v9.15h-9.282z"/>
  <path d="M187.921 153.214h9.282v9.15h-9.282z"/>
  <path d="M215.767 153.214h9.282v9.15h-9.282z"/>
  <path d="M243.612 153.214h9.282v9.15h-9.282z"/>
  <path d="M271.457 153.214h9.282v9.15h-9.282z"/>
</svg>
