<svg xmlns="http://www.w3.org/2000/svg" width="105" height="20">
  <g id="Page-1" fill="none" fill-rule="evenodd" stroke="none" stroke-width="1">
    <g id="Group-2" fill-rule="nonzero" stroke="#FFB547" transform="translate(1 1)">
      <path id="Path" d="M7.692.997c.619-1.33 2.508-1.33 3.127 0l1.439 3.087c.251.54.763.912 1.354.984l3.381.414c1.455.179 2.04 1.975.967 2.975l-2.492 2.322a1.725 1.725 0 0 0-.517 1.592l.65 3.344c.28 1.439-1.248 2.55-2.53 1.838l-2.979-1.652a1.725 1.725 0 0 0-1.673 0l-2.98 1.652c-1.281.711-2.81-.4-2.53-1.838l.651-3.344a1.725 1.725 0 0 0-.517-1.592L.551 8.457c-1.072-1-.489-2.796.966-2.975L4.9 5.068a1.725 1.725 0 0 0 1.354-.984L7.692.997Z"/>
      <path id="Path" d="M28.692.997c.619-1.33 2.508-1.33 3.127 0l1.439 3.087c.251.54.763.912 1.354.984l3.381.414c1.455.179 2.04 1.975.967 2.975l-2.492 2.322a1.725 1.725 0 0 0-.517 1.592l.65 3.344c.28 1.439-1.248 2.55-2.53 1.838l-2.979-1.652a1.725 1.725 0 0 0-1.673 0l-2.98 1.652c-1.281.711-2.81-.4-2.53-1.838l.651-3.344a1.725 1.725 0 0 0-.517-1.592l-2.492-2.322c-1.072-1-.489-2.796.966-2.975l3.382-.414a1.725 1.725 0 0 0 1.354-.984L28.692.997Z"/>
      <path id="Path-Copy" d="M49.692.997c.619-1.33 2.508-1.33 3.127 0l1.439 3.087c.251.54.763.912 1.354.984l3.381.414c1.455.179 2.04 1.975.967 2.975l-2.492 2.322a1.725 1.725 0 0 0-.517 1.592l.65 3.344c.28 1.439-1.248 2.55-2.53 1.838l-2.979-1.652a1.725 1.725 0 0 0-1.673 0l-2.98 1.652c-1.281.711-2.81-.4-2.53-1.838l.651-3.344a1.725 1.725 0 0 0-.517-1.592l-2.492-2.322c-1.072-1-.489-2.796.966-2.975l3.382-.414a1.725 1.725 0 0 0 1.354-.984L49.692.997Z"/>
      <path id="Path-Copy-2" d="M70.692.997c.619-1.33 2.508-1.33 3.127 0l1.439 3.087c.251.54.763.912 1.354.984l3.381.414c1.455.179 2.04 1.975.967 2.975l-2.492 2.322a1.725 1.725 0 0 0-.517 1.592l.65 3.344c.28 1.439-1.248 2.55-2.53 1.838l-2.979-1.652a1.725 1.725 0 0 0-1.673 0l-2.98 1.652c-1.281.711-2.81-.4-2.53-1.838l.651-3.344a1.725 1.725 0 0 0-.517-1.592l-2.492-2.322c-1.072-1-.489-2.796.966-2.975l3.382-.414a1.725 1.725 0 0 0 1.354-.984L70.692.997Z"/>
      <path id="Path-Copy-3" d="M91.692.997c.619-1.33 2.508-1.33 3.127 0l1.439 3.087c.251.54.763.912 1.354.984l3.381.414c1.455.179 2.04 1.975.967 2.975l-2.492 2.322a1.725 1.725 0 0 0-.517 1.592l.65 3.344c.28 1.439-1.248 2.55-2.53 1.838l-2.979-1.652a1.725 1.725 0 0 0-1.673 0l-2.98 1.652c-1.281.711-2.81-.4-2.53-1.838l.651-3.344a1.725 1.725 0 0 0-.517-1.592l-2.492-2.322c-1.072-1-.489-2.796.966-2.975l3.382-.414a1.725 1.725 0 0 0 1.354-.984L91.692.997Z"/>
    </g>
  </g>
</svg>
