<svg xmlns="http://www.w3.org/2000/svg" width="48" height="48" fill="none">
  <g stroke="#000" stroke-linecap="round" stroke-width="2" clip-path="url(#clip0_153_296)">
    <path stroke-linejoin="round" d="M30 12H18a6 6 0 0 0-6 6v12a6 6 0 0 0 6 6h12a6 6 0 0 0 6-6V18a6 6 0 0 0-6-6Z"/>
    <path stroke-linejoin="round" d="M18 36v6h12v-6"/>
    <path stroke-linejoin="round" d="M18 12V6h12v6"/>
    <path d="M20.714 18v11"/>
    <path d="M24.714 23v6"/>
    <path d="M28.714 21v8"/>
  </g>
  <defs>
    <clipPath id="clip0_153_296">
      <path fill="#fff" d="M0 0h48v48H0z"/>
    </clipPath>
  </defs>
</svg>
